<mxfile>
    <diagram id="C5RBs43oDa-KdzZeNtuy" name="Page-1">
        <mxGraphModel dx="0" dy="627" grid="1" gridSize="10" guides="1" tooltips="1" connect="1" arrows="1" fold="1" page="1" pageScale="1" pageWidth="827" pageHeight="1169" background="#F4F1DE" math="0" shadow="0">
            <root>
                <mxCell id="WIyWlLk6GJQsqaUBKTNV-0"/>
                <mxCell id="WIyWlLk6GJQsqaUBKTNV-1" parent="WIyWlLk6GJQsqaUBKTNV-0"/>
                <mxCell id="241" style="edgeStyle=orthogonalEdgeStyle;orthogonalLoop=1;jettySize=auto;html=1;strokeColor=#E07A5F;fontColor=#393C56;labelBackgroundColor=#F4F1DE;" parent="WIyWlLk6GJQsqaUBKTNV-1" source="142" edge="1">
                    <mxGeometry relative="1" as="geometry">
                        <mxPoint x="185" y="660" as="targetPoint"/>
                    </mxGeometry>
                </mxCell>
                <mxCell id="142" value="获取域名对应IP地址" style="whiteSpace=wrap;html=1;fillColor=#F2CC8F;strokeColor=#E07A5F;fontColor=#393C56;rounded=1;" parent="WIyWlLk6GJQsqaUBKTNV-1" vertex="1">
                    <mxGeometry x="102.5" y="510" width="165" height="55" as="geometry"/>
                </mxCell>
                <mxCell id="145" value="cache-control:&amp;nbsp;&lt;br&gt;字段有&lt;br&gt;no-cache 或 no-store" style="whiteSpace=wrap;html=1;fillColor=#F2CC8F;strokeColor=#E07A5F;fontColor=#393C56;rounded=1;" parent="WIyWlLk6GJQsqaUBKTNV-1" vertex="1">
                    <mxGeometry x="115" y="770" width="140" height="60" as="geometry"/>
                </mxCell>
                <mxCell id="210" value="no-cache" style="edgeStyle=orthogonalEdgeStyle;orthogonalLoop=1;jettySize=auto;html=1;strokeColor=#E07A5F;fontColor=#393C56;labelBackgroundColor=#F4F1DE;" parent="WIyWlLk6GJQsqaUBKTNV-1" source="148" target="157" edge="1">
                    <mxGeometry relative="1" as="geometry"/>
                </mxCell>
                <mxCell id="275" value="no-store" style="edgeStyle=orthogonalEdgeStyle;orthogonalLoop=1;jettySize=auto;html=1;strokeColor=#E07A5F;fontColor=#393C56;labelBackgroundColor=#F4F1DE;" parent="WIyWlLk6GJQsqaUBKTNV-1" source="148" target="274" edge="1">
                    <mxGeometry relative="1" as="geometry"/>
                </mxCell>
                <mxCell id="148" value="协商缓存" style="whiteSpace=wrap;html=1;fillColor=#F2CC8F;strokeColor=#E07A5F;fontColor=#393C56;rounded=1;" parent="WIyWlLk6GJQsqaUBKTNV-1" vertex="1">
                    <mxGeometry x="334" y="770" width="80" height="60" as="geometry"/>
                </mxCell>
                <mxCell id="149" style="edgeStyle=orthogonalEdgeStyle;orthogonalLoop=1;jettySize=auto;html=1;exitX=0.5;exitY=1;exitDx=0;exitDy=0;strokeColor=#E07A5F;fontColor=#393C56;labelBackgroundColor=#F4F1DE;" parent="WIyWlLk6GJQsqaUBKTNV-1" source="150" target="152" edge="1">
                    <mxGeometry relative="1" as="geometry">
                        <mxPoint x="192.5" y="920" as="targetPoint"/>
                    </mxGeometry>
                </mxCell>
                <mxCell id="150" value="判断缓存是否过期" style="whiteSpace=wrap;html=1;fillColor=#F2CC8F;strokeColor=#E07A5F;fontColor=#393C56;rounded=1;" parent="WIyWlLk6GJQsqaUBKTNV-1" vertex="1">
                    <mxGeometry x="125" y="920" width="120" height="40" as="geometry"/>
                </mxCell>
                <mxCell id="152" value="响应头的&lt;br&gt;age 和 max-age" style="whiteSpace=wrap;html=1;fillColor=#F2CC8F;strokeColor=#E07A5F;fontColor=#393C56;rounded=1;" parent="WIyWlLk6GJQsqaUBKTNV-1" vertex="1">
                    <mxGeometry x="125" y="1000" width="120" height="60" as="geometry"/>
                </mxCell>
                <mxCell id="214" value="" style="edgeStyle=orthogonalEdgeStyle;orthogonalLoop=1;jettySize=auto;html=1;strokeColor=#E07A5F;fontColor=#393C56;labelBackgroundColor=#F4F1DE;" parent="WIyWlLk6GJQsqaUBKTNV-1" source="155" target="213" edge="1">
                    <mxGeometry relative="1" as="geometry"/>
                </mxCell>
                <mxCell id="155" value="将相应头的Etag 字段放在请求头的if-match或 if-none-match 发起请求" style="whiteSpace=wrap;html=1;fillColor=#F2CC8F;strokeColor=#E07A5F;fontColor=#393C56;rounded=1;" parent="WIyWlLk6GJQsqaUBKTNV-1" vertex="1">
                    <mxGeometry x="772.5" y="770" width="140" height="60" as="geometry"/>
                </mxCell>
                <mxCell id="211" value="" style="edgeStyle=orthogonalEdgeStyle;orthogonalLoop=1;jettySize=auto;html=1;strokeColor=#E07A5F;fontColor=#393C56;labelBackgroundColor=#F4F1DE;" parent="WIyWlLk6GJQsqaUBKTNV-1" source="157" target="158" edge="1">
                    <mxGeometry relative="1" as="geometry"/>
                </mxCell>
                <mxCell id="157" value="不缓存过期的资源&lt;br&gt;缓存服务器会先向服务器进行有效性确认" style="whiteSpace=wrap;html=1;fillColor=#F2CC8F;strokeColor=#E07A5F;fontColor=#393C56;rounded=1;" parent="WIyWlLk6GJQsqaUBKTNV-1" vertex="1">
                    <mxGeometry x="500" y="770" width="120" height="60" as="geometry"/>
                </mxCell>
                <mxCell id="212" value="" style="edgeStyle=orthogonalEdgeStyle;orthogonalLoop=1;jettySize=auto;html=1;strokeColor=#E07A5F;fontColor=#393C56;labelBackgroundColor=#F4F1DE;" parent="WIyWlLk6GJQsqaUBKTNV-1" source="158" target="155" edge="1">
                    <mxGeometry relative="1" as="geometry"/>
                </mxCell>
                <mxCell id="158" value="no-cache" style="text;html=1;align=center;verticalAlign=middle;resizable=0;points=[];autosize=1;strokeColor=none;fontColor=#393C56;rounded=1;" parent="WIyWlLk6GJQsqaUBKTNV-1" vertex="1">
                    <mxGeometry x="652.5" y="790" width="60" height="20" as="geometry"/>
                </mxCell>
                <mxCell id="254" value="内容" style="edgeStyle=orthogonalEdgeStyle;orthogonalLoop=1;jettySize=auto;html=1;entryX=0;entryY=0.5;entryDx=0;entryDy=0;strokeColor=#E07A5F;fontColor=#393C56;labelBackgroundColor=#F4F1DE;" parent="WIyWlLk6GJQsqaUBKTNV-1" source="163" target="261" edge="1">
                    <mxGeometry relative="1" as="geometry">
                        <mxPoint x="380" y="130" as="targetPoint"/>
                    </mxGeometry>
                </mxCell>
                <mxCell id="269" value="地址" style="edgeStyle=orthogonalEdgeStyle;orthogonalLoop=1;jettySize=auto;html=1;strokeColor=#E07A5F;fontColor=#393C56;labelBackgroundColor=#F4F1DE;" parent="WIyWlLk6GJQsqaUBKTNV-1" source="163" target="257" edge="1">
                    <mxGeometry relative="1" as="geometry"/>
                </mxCell>
                <mxCell id="163" value="是地址还是查询内容" style="rhombus;whiteSpace=wrap;html=1;fillColor=#F2CC8F;strokeColor=#E07A5F;fontColor=#393C56;rounded=1;" parent="WIyWlLk6GJQsqaUBKTNV-1" vertex="1">
                    <mxGeometry x="112.5" y="130" width="145" height="70" as="geometry"/>
                </mxCell>
                <mxCell id="270" value="" style="edgeStyle=orthogonalEdgeStyle;orthogonalLoop=1;jettySize=auto;html=1;strokeColor=#E07A5F;fontColor=#393C56;labelBackgroundColor=#F4F1DE;" parent="WIyWlLk6GJQsqaUBKTNV-1" source="167" target="163" edge="1">
                    <mxGeometry relative="1" as="geometry"/>
                </mxCell>
                <mxCell id="167" value="客户端输入内容" style="ellipse;whiteSpace=wrap;html=1;fillColor=#F2CC8F;strokeColor=#E07A5F;fontColor=#393C56;rounded=1;" parent="WIyWlLk6GJQsqaUBKTNV-1" vertex="1">
                    <mxGeometry x="92.5" y="10" width="185" height="70" as="geometry"/>
                </mxCell>
                <mxCell id="265" style="edgeStyle=orthogonalEdgeStyle;orthogonalLoop=1;jettySize=auto;html=1;entryX=0.5;entryY=0;entryDx=0;entryDy=0;strokeColor=#E07A5F;fontColor=#393C56;labelBackgroundColor=#F4F1DE;" parent="WIyWlLk6GJQsqaUBKTNV-1" source="203" target="142" edge="1">
                    <mxGeometry relative="1" as="geometry"/>
                </mxCell>
                <mxCell id="213" value="如果请求头有&amp;nbsp;&lt;br&gt;no-cache&lt;br&gt;&lt;br&gt;缓存服务器会讲该请求转发给服务器，由服务器决定是否使用缓存" style="whiteSpace=wrap;html=1;fillColor=#F2CC8F;strokeColor=#E07A5F;fontColor=#393C56;rounded=1;" parent="WIyWlLk6GJQsqaUBKTNV-1" vertex="1">
                    <mxGeometry x="1012.5" y="760" width="210" height="80" as="geometry"/>
                </mxCell>
                <mxCell id="223" value="" style="endArrow=classic;html=1;entryX=0;entryY=0.5;entryDx=0;entryDy=0;strokeColor=#E07A5F;fontColor=#393C56;labelBackgroundColor=#F4F1DE;" parent="WIyWlLk6GJQsqaUBKTNV-1" source="145" target="148" edge="1">
                    <mxGeometry relative="1" as="geometry">
                        <mxPoint x="202.5" y="790" as="sourcePoint"/>
                        <mxPoint x="362.5" y="790" as="targetPoint"/>
                    </mxGeometry>
                </mxCell>
                <mxCell id="224" value="有" style="edgeLabel;resizable=0;html=1;align=center;verticalAlign=middle;fontColor=#393C56;rounded=1;labelBackgroundColor=#F4F1DE;" parent="223" connectable="0" vertex="1">
                    <mxGeometry relative="1" as="geometry"/>
                </mxCell>
                <mxCell id="227" value="" style="endArrow=classic;html=1;exitX=0.5;exitY=1;exitDx=0;exitDy=0;entryX=0.5;entryY=0;entryDx=0;entryDy=0;strokeColor=#E07A5F;fontColor=#393C56;labelBackgroundColor=#F4F1DE;" parent="WIyWlLk6GJQsqaUBKTNV-1" source="145" target="150" edge="1">
                    <mxGeometry relative="1" as="geometry">
                        <mxPoint x="142.5" y="880" as="sourcePoint"/>
                        <mxPoint x="242.5" y="880" as="targetPoint"/>
                    </mxGeometry>
                </mxCell>
                <mxCell id="228" value="无" style="edgeLabel;resizable=0;html=1;align=center;verticalAlign=middle;fontColor=#393C56;rounded=1;labelBackgroundColor=#F4F1DE;" parent="227" connectable="0" vertex="1">
                    <mxGeometry relative="1" as="geometry"/>
                </mxCell>
                <mxCell id="258" value="有" style="edgeStyle=orthogonalEdgeStyle;orthogonalLoop=1;jettySize=auto;html=1;entryX=0;entryY=0.5;entryDx=0;entryDy=0;strokeColor=#E07A5F;fontColor=#393C56;labelBackgroundColor=#F4F1DE;" parent="WIyWlLk6GJQsqaUBKTNV-1" source="257" target="260" edge="1">
                    <mxGeometry relative="1" as="geometry">
                        <mxPoint x="340" y="330" as="targetPoint"/>
                    </mxGeometry>
                </mxCell>
                <mxCell id="259" value="无" style="edgeStyle=orthogonalEdgeStyle;orthogonalLoop=1;jettySize=auto;html=1;entryX=0.5;entryY=0;entryDx=0;entryDy=0;strokeColor=#E07A5F;fontColor=#393C56;labelBackgroundColor=#F4F1DE;" parent="WIyWlLk6GJQsqaUBKTNV-1" source="257" target="203" edge="1">
                    <mxGeometry relative="1" as="geometry">
                        <mxPoint x="183" y="410" as="targetPoint"/>
                    </mxGeometry>
                </mxCell>
                <mxCell id="257" value="&lt;span&gt;判断是否有强缓存&lt;/span&gt;" style="rhombus;whiteSpace=wrap;html=1;fillColor=#F2CC8F;strokeColor=#E07A5F;fontColor=#393C56;rounded=1;" parent="WIyWlLk6GJQsqaUBKTNV-1" vertex="1">
                    <mxGeometry x="115" y="270" width="140" height="60" as="geometry"/>
                </mxCell>
                <mxCell id="260" value="使用强缓存内容" style="whiteSpace=wrap;html=1;fillColor=#F2CC8F;strokeColor=#E07A5F;fontColor=#393C56;rounded=1;" parent="WIyWlLk6GJQsqaUBKTNV-1" vertex="1">
                    <mxGeometry x="362.5" y="270" width="120" height="60" as="geometry"/>
                </mxCell>
                <mxCell id="261" value="&lt;span&gt;搜索引擎进行查询&lt;/span&gt;" style="whiteSpace=wrap;html=1;fillColor=#F2CC8F;strokeColor=#E07A5F;fontColor=#393C56;rounded=1;" parent="WIyWlLk6GJQsqaUBKTNV-1" vertex="1">
                    <mxGeometry x="362.5" y="135" width="120" height="60" as="geometry"/>
                </mxCell>
                <mxCell id="267" style="edgeStyle=orthogonalEdgeStyle;orthogonalLoop=1;jettySize=auto;html=1;strokeColor=#E07A5F;fontColor=#393C56;labelBackgroundColor=#F4F1DE;" parent="WIyWlLk6GJQsqaUBKTNV-1" source="266" target="145" edge="1">
                    <mxGeometry relative="1" as="geometry"/>
                </mxCell>
                <mxCell id="266" value="三次握手，建立TCP连接" style="whiteSpace=wrap;html=1;fillColor=#F2CC8F;strokeColor=#E07A5F;fontColor=#393C56;rounded=1;" parent="WIyWlLk6GJQsqaUBKTNV-1" vertex="1">
                    <mxGeometry x="125" y="630" width="120" height="60" as="geometry"/>
                </mxCell>
                <mxCell id="274" value="不缓存请求或响应的任何内容&lt;br&gt;" style="whiteSpace=wrap;html=1;fillColor=#F2CC8F;strokeColor=#E07A5F;fontColor=#393C56;rounded=1;" parent="WIyWlLk6GJQsqaUBKTNV-1" vertex="1">
                    <mxGeometry x="314" y="900" width="120" height="60" as="geometry"/>
                </mxCell>
                <mxCell id="276" value="用来判断缓存是否过期的两组字段" style="whiteSpace=wrap;html=1;fillColor=#F2CC8F;strokeColor=#E07A5F;fontColor=#393C56;rounded=1;" parent="WIyWlLk6GJQsqaUBKTNV-1" vertex="1">
                    <mxGeometry x="620" y="860" width="120" height="60" as="geometry"/>
                </mxCell>
                <mxCell id="203" value="DNS解析，获取IP地址" style="whiteSpace=wrap;html=1;fillColor=#F2CC8F;strokeColor=#E07A5F;fontColor=#393C56;rounded=1;" parent="WIyWlLk6GJQsqaUBKTNV-1" vertex="1">
                    <mxGeometry x="101" y="410" width="170" height="40" as="geometry"/>
                </mxCell>
                <mxCell id="278" value="" style="dashed=0;outlineConnect=0;html=1;align=center;labelPosition=center;verticalLabelPosition=bottom;verticalAlign=top;shape=mxgraph.weblogos.chrome;rounded=1;fontColor=#393C56;strokeColor=#E07A5F;fillColor=#F2CC8F;" parent="WIyWlLk6GJQsqaUBKTNV-1" vertex="1">
                    <mxGeometry x="102.5" y="29.33" width="39" height="31.35" as="geometry"/>
                </mxCell>
            </root>
        </mxGraphModel>
    </diagram>
</mxfile>